<!DOCTYPE svg PUBLIC "-//W3C//DTD SVG 1.1//EN" "http://www.w3.org/Graphics/SVG/1.1/DTD/svg11.dtd">
<svg style="stroke-linecap:square;" xmlns="http://www.w3.org/2000/svg" xmlns:xlink="http://www.w3.org/1999/xlink" width="1090" height="691">
<defs><clipPath id="clip-0"><path d="M 0 0 L 1090 0 L 1090 691 L 0 691 L 0 0 M 0 0"/></clipPath>
<clipPath id="clip-1"><path d="M 744.37 519.63 L 744.37 1609.63 L 53.37 1609.63 L 53.37 519.63 L 744.37 519.63 M 744.37 519.63"/></clipPath>
<clipPath id="clip-2"><path d="M 811.1 452.9 L 811.1 1542.9 L 120.1 1542.9 L 120.1 452.9 L 811.1 452.9 M 811.1 452.9"/></clipPath>
<clipPath id="clip-3"><path d="M 877.83 386.17 L 877.83 1476.17 L 186.83 1476.17 L 186.83 386.17 L 877.83 386.17 M 877.83 386.17"/></clipPath>
<clipPath id="clip-4"><path d="M 944.57 319.43 L 944.57 1409.43 L 253.57 1409.43 L 253.57 319.43 L 944.57 319.43 M 944.57 319.43"/></clipPath>
<clipPath id="clip-5"><path d="M 1011.3 252.7 L 1011.3 1342.7 L 320.3 1342.7 L 320.3 252.7 L 1011.3 252.7 M 1011.3 252.7"/></clipPath>
<clipPath id="clip-6"><path d="M 1078.03 185.97 L 1078.03 1275.97 L 387.03 1275.97 L 387.03 185.97 L 1078.03 185.97 M 1078.03 185.97"/></clipPath>
<clipPath id="clip-7"><path d="M 1144.77 119.23 L 1144.77 1209.23 L 453.77 1209.23 L 453.77 119.23 L 1144.77 119.23 M 1144.77 119.23"/></clipPath>
<clipPath id="clip-8"><path d="M 1211.5 52.5 L 1211.5 1142.5 L 520.5 1142.5 L 520.5 52.5 L 1211.5 52.5 M 1211.5 52.5"/></clipPath>
<clipPath id="clip-9"><path d="M 1278.23 -14.23 L 1278.23 1075.77 L 587.23 1075.77 L 587.23 -14.23 L 1278.23 -14.23 M 1278.23 -14.23"/></clipPath>
<clipPath id="clip-10"><path d="M 1344.97 -80.97 L 1344.97 1009.03 L 653.97 1009.03 L 653.97 -80.97 L 1344.97 -80.97 M 1344.97 -80.97"/></clipPath>
<clipPath id="clip-11"><path d="M 1411.7 -147.7 L 1411.7 942.3 L 720.7 942.3 L 720.7 -147.7 L 1411.7 -147.7 M 1411.7 -147.7"/></clipPath>
<clipPath id="clip-12"><path d="M 1478.43 -214.43 L 1478.43 875.57 L 787.43 875.57 L 787.43 -214.43 L 1478.43 -214.43 M 1478.43 -214.43"/></clipPath>
<clipPath id="clip-13"><path d="M 1545.17 -281.17 L 1545.17 808.83 L 854.17 808.83 L 854.17 -281.17 L 1545.17 -281.17 M 1545.17 -281.17"/></clipPath>
<clipPath id="clip-14"><path d="M 1611.9 -347.9 L 1611.9 742.1 L 920.9 742.1 L 920.9 -347.9 L 1611.9 -347.9 M 1611.9 -347.9"/></clipPath>
<clipPath id="clip-15"><path d="M 1678.63 -414.63 L 1678.63 675.37 L 987.63 675.37 L 987.63 -414.63 L 1678.63 -414.63 M 1678.63 -414.63"/></clipPath>
<clipPath id="clip-16"><path d="M 79 66 L 79 620 L 1080 620 L 1080 66 M 79 66"/></clipPath>
<clipPath id="clip-17"><path d="M 366.97 319.03 L 366.97 1409.03 L -324.03 1409.03 L -324.03 319.03 L 366.97 319.03 M 366.97 319.03"/></clipPath>
</defs>
<rect x="0" y="0" width="1090" height="691" style="fill: rgb(255,255,255);fill-opacity: 1" transform="matrix(1,0,0,1,0,0)" clip-path="url(#clip-0)"/><g transform="matrix(1,0,0,1,0,0)"><text x="299.5" y="25.99" style="fill: rgb(0,0,0); font-family: CMU Serif; font-size: 16px; font-weight: bold; " text-rendering="auto" clip-path="url(#clip-0)">Dimensions de la partition Années dans le corpus FRONTEX</text></g><g transform="matrix(1,0,0,1,0,0)"><text x="499" y="48.45" style="fill: rgb(77,117,158); font-family: CMU Serif; font-size: 15px; font-weight: bold; " text-rendering="auto" clip-path="url(#clip-0)">15 Partie(s)</text></g><rect x="79" y="66" width="1001" height="554" style="fill: rgb(255,255,255);fill-opacity: 1" transform="matrix(1,0,0,1,0,0)" clip-path="url(#clip-0)"/><line x1="79" y1="620" x2="1080" y2="620" style="stroke-width: 1.0;stroke: rgb(192,208,224);stroke-opacity: 1;" transform="matrix(1,0,0,1,0,0)" clip-path="url(#clip-0)"/><g transform="matrix(0,-1,1,0,-519.633331,744.366669)"><text x="88.37" y="634.95" style="fill: rgb(102,102,102); font-family: CMU Serif; font-size: 11px; font-weight: bold; " text-rendering="auto" clip-path="url(#clip-1)">2006</text></g><line x1="145.73" y1="625" x2="145.73" y2="620" style="stroke-width: 1.0;stroke: rgb(192,208,224);stroke-opacity: 1;" transform="matrix(1,0,0,1,0,0)" clip-path="url(#clip-0)"/><line x1="79" y1="625" x2="79" y2="620" style="stroke-width: 1.0;stroke: rgb(192,208,224);stroke-opacity: 1;" transform="matrix(1,0,0,1,0,0)" clip-path="url(#clip-0)"/><g transform="matrix(0,-1,1,0,-452.899994,811.100006)"><text x="155.1" y="634.95" style="fill: rgb(102,102,102); font-family: CMU Serif; font-size: 11px; font-weight: bold; " text-rendering="auto" clip-path="url(#clip-2)">2007</text></g><line x1="212.47" y1="625" x2="212.47" y2="620" style="stroke-width: 1.0;stroke: rgb(192,208,224);stroke-opacity: 1;" transform="matrix(1,0,0,1,0,0)" clip-path="url(#clip-0)"/><g transform="matrix(0,-1,1,0,-386.166672,877.833328)"><text x="221.83" y="634.95" style="fill: rgb(102,102,102); font-family: CMU Serif; font-size: 11px; font-weight: bold; " text-rendering="auto" clip-path="url(#clip-3)">2008</text></g><line x1="279.2" y1="625" x2="279.2" y2="620" style="stroke-width: 1.0;stroke: rgb(192,208,224);stroke-opacity: 1;" transform="matrix(1,0,0,1,0,0)" clip-path="url(#clip-0)"/><g transform="matrix(0,-1,1,0,-319.433319,944.566681)"><text x="288.57" y="634.95" style="fill: rgb(102,102,102); font-family: CMU Serif; font-size: 11px; font-weight: bold; " text-rendering="auto" clip-path="url(#clip-4)">2009</text></g><line x1="345.93" y1="625" x2="345.93" y2="620" style="stroke-width: 1.0;stroke: rgb(192,208,224);stroke-opacity: 1;" transform="matrix(1,0,0,1,0,0)" clip-path="url(#clip-0)"/><g transform="matrix(0,-1,1,0,-252.700012,1011.299988)"><text x="355.3" y="634.95" style="fill: rgb(102,102,102); font-family: CMU Serif; font-size: 11px; font-weight: bold; " text-rendering="auto" clip-path="url(#clip-5)">2010</text></g><line x1="412.67" y1="625" x2="412.67" y2="620" style="stroke-width: 1.0;stroke: rgb(192,208,224);stroke-opacity: 1;" transform="matrix(1,0,0,1,0,0)" clip-path="url(#clip-0)"/><g transform="matrix(0,-1,1,0,-185.966675,1078.033325)"><text x="422.03" y="634.95" style="fill: rgb(102,102,102); font-family: CMU Serif; font-size: 11px; font-weight: bold; " text-rendering="auto" clip-path="url(#clip-6)">2011</text></g><line x1="479.4" y1="625" x2="479.4" y2="620" style="stroke-width: 1.0;stroke: rgb(192,208,224);stroke-opacity: 1;" transform="matrix(1,0,0,1,0,0)" clip-path="url(#clip-0)"/><g transform="matrix(0,-1,1,0,-119.233337,1144.766663)"><text x="488.77" y="634.95" style="fill: rgb(102,102,102); font-family: CMU Serif; font-size: 11px; font-weight: bold; " text-rendering="auto" clip-path="url(#clip-7)">2012</text></g><line x1="546.13" y1="625" x2="546.13" y2="620" style="stroke-width: 1.0;stroke: rgb(192,208,224);stroke-opacity: 1;" transform="matrix(1,0,0,1,0,0)" clip-path="url(#clip-0)"/><g transform="matrix(0,-1,1,0,-52.5,1211.5)"><text x="555.5" y="634.95" style="fill: rgb(102,102,102); font-family: CMU Serif; font-size: 11px; font-weight: bold; " text-rendering="auto" clip-path="url(#clip-8)">2013</text></g><line x1="612.87" y1="625" x2="612.87" y2="620" style="stroke-width: 1.0;stroke: rgb(192,208,224);stroke-opacity: 1;" transform="matrix(1,0,0,1,0,0)" clip-path="url(#clip-0)"/><g transform="matrix(0,-1,1,0,14.233337,1278.233337)"><text x="622.23" y="634.95" style="fill: rgb(102,102,102); font-family: CMU Serif; font-size: 11px; font-weight: bold; " text-rendering="auto" clip-path="url(#clip-9)">2014</text></g><line x1="679.6" y1="625" x2="679.6" y2="620" style="stroke-width: 1.0;stroke: rgb(192,208,224);stroke-opacity: 1;" transform="matrix(1,0,0,1,0,0)" clip-path="url(#clip-0)"/><g transform="matrix(0,-1,1,0,80.966675,1344.966675)"><text x="688.97" y="634.95" style="fill: rgb(102,102,102); font-family: CMU Serif; font-size: 11px; font-weight: bold; " text-rendering="auto" clip-path="url(#clip-10)">2015</text></g><line x1="746.33" y1="625" x2="746.33" y2="620" style="stroke-width: 1.0;stroke: rgb(192,208,224);stroke-opacity: 1;" transform="matrix(1,0,0,1,0,0)" clip-path="url(#clip-0)"/><g transform="matrix(0,-1,1,0,147.700012,1411.700012)"><text x="755.7" y="634.95" style="fill: rgb(102,102,102); font-family: CMU Serif; font-size: 11px; font-weight: bold; " text-rendering="auto" clip-path="url(#clip-11)">2016</text></g><line x1="813.07" y1="625" x2="813.07" y2="620" style="stroke-width: 1.0;stroke: rgb(192,208,224);stroke-opacity: 1;" transform="matrix(1,0,0,1,0,0)" clip-path="url(#clip-0)"/><g transform="matrix(0,-1,1,0,214.43335,1478.43335)"><text x="822.43" y="634.95" style="fill: rgb(102,102,102); font-family: CMU Serif; font-size: 11px; font-weight: bold; " text-rendering="auto" clip-path="url(#clip-12)">2017</text></g><line x1="879.8" y1="625" x2="879.8" y2="620" style="stroke-width: 1.0;stroke: rgb(192,208,224);stroke-opacity: 1;" transform="matrix(1,0,0,1,0,0)" clip-path="url(#clip-0)"/><g transform="matrix(0,-1,1,0,281.166687,1545.166687)"><text x="889.17" y="634.95" style="fill: rgb(102,102,102); font-family: CMU Serif; font-size: 11px; font-weight: bold; " text-rendering="auto" clip-path="url(#clip-13)">2018</text></g><line x1="946.53" y1="625" x2="946.53" y2="620" style="stroke-width: 1.0;stroke: rgb(192,208,224);stroke-opacity: 1;" transform="matrix(1,0,0,1,0,0)" clip-path="url(#clip-0)"/><g transform="matrix(0,-1,1,0,347.900024,1611.900024)"><text x="955.9" y="634.95" style="fill: rgb(102,102,102); font-family: CMU Serif; font-size: 11px; font-weight: bold; " text-rendering="auto" clip-path="url(#clip-14)">2019</text></g><line x1="1013.27" y1="625" x2="1013.27" y2="620" style="stroke-width: 1.0;stroke: rgb(192,208,224);stroke-opacity: 1;" transform="matrix(1,0,0,1,0,0)" clip-path="url(#clip-0)"/><g transform="matrix(0,-1,1,0,414.633301,1678.633301)"><text x="1022.63" y="634.95" style="fill: rgb(102,102,102); font-family: CMU Serif; font-size: 11px; font-weight: bold; " text-rendering="auto" clip-path="url(#clip-15)">2020</text></g><line x1="1080" y1="625" x2="1080" y2="620" style="stroke-width: 1.0;stroke: rgb(192,208,224);stroke-opacity: 1;" transform="matrix(1,0,0,1,0,0)" clip-path="url(#clip-0)"/><g transform="matrix(1,0,0,1,0,0)"><text x="556" y="671.06" style="fill: rgb(77,117,158); font-family: CMU Serif; font-size: 15px; font-weight: bold; " text-rendering="auto" clip-path="url(#clip-0)">Partie</text></g><rect x="79" y="66.5" width="66.73" height="553.5" style="fill: rgb(255,255,255);fill-opacity: 1" transform="matrix(1,0,0,1,0,0)" clip-path="url(#clip-16)"/><rect x="145.73" y="66.5" width="66.73" height="553.5" style="fill: rgb(0,0,0);fill-opacity: 0" transform="matrix(1,0,0,1,0,0)" clip-path="url(#clip-16)"/><rect x="212.47" y="66.5" width="66.73" height="553.5" style="fill: rgb(255,255,255);fill-opacity: 1" transform="matrix(1,0,0,1,0,0)" clip-path="url(#clip-16)"/><rect x="279.2" y="66.5" width="66.73" height="553.5" style="fill: rgb(0,0,0);fill-opacity: 0" transform="matrix(1,0,0,1,0,0)" clip-path="url(#clip-16)"/><rect x="345.93" y="66.5" width="66.73" height="553.5" style="fill: rgb(255,255,255);fill-opacity: 1" transform="matrix(1,0,0,1,0,0)" clip-path="url(#clip-16)"/><rect x="412.67" y="66.5" width="66.73" height="553.5" style="fill: rgb(0,0,0);fill-opacity: 0" transform="matrix(1,0,0,1,0,0)" clip-path="url(#clip-16)"/><rect x="479.4" y="66.5" width="66.73" height="553.5" style="fill: rgb(255,255,255);fill-opacity: 1" transform="matrix(1,0,0,1,0,0)" clip-path="url(#clip-16)"/><rect x="546.13" y="66.5" width="66.73" height="553.5" style="fill: rgb(0,0,0);fill-opacity: 0" transform="matrix(1,0,0,1,0,0)" clip-path="url(#clip-16)"/><rect x="612.87" y="66.5" width="66.73" height="553.5" style="fill: rgb(255,255,255);fill-opacity: 1" transform="matrix(1,0,0,1,0,0)" clip-path="url(#clip-16)"/><rect x="679.6" y="66.5" width="66.73" height="553.5" style="fill: rgb(0,0,0);fill-opacity: 0" transform="matrix(1,0,0,1,0,0)" clip-path="url(#clip-16)"/><rect x="746.33" y="66.5" width="66.73" height="553.5" style="fill: rgb(255,255,255);fill-opacity: 1" transform="matrix(1,0,0,1,0,0)" clip-path="url(#clip-16)"/><rect x="813.07" y="66.5" width="66.73" height="553.5" style="fill: rgb(0,0,0);fill-opacity: 0" transform="matrix(1,0,0,1,0,0)" clip-path="url(#clip-16)"/><rect x="879.8" y="66.5" width="66.73" height="553.5" style="fill: rgb(255,255,255);fill-opacity: 1" transform="matrix(1,0,0,1,0,0)" clip-path="url(#clip-16)"/><rect x="946.53" y="66.5" width="66.73" height="553.5" style="fill: rgb(0,0,0);fill-opacity: 0" transform="matrix(1,0,0,1,0,0)" clip-path="url(#clip-16)"/><rect x="1013.27" y="66.5" width="66.73" height="553.5" style="fill: rgb(255,255,255);fill-opacity: 1" transform="matrix(1,0,0,1,0,0)" clip-path="url(#clip-16)"/><g transform="matrix(1,0,0,1,0,0)"><text x="67" y="622.95" style="fill: rgb(102,102,102); font-family: CMU Serif; font-size: 11px; font-weight: bold; " text-rendering="auto" clip-path="url(#clip-0)">0</text></g><g transform="matrix(1,0,0,1,0,0)"><text x="45" y="600.65" style="fill: rgb(102,102,102); font-family: CMU Serif; font-size: 11px; font-weight: bold; " text-rendering="auto" clip-path="url(#clip-0)">1 000</text></g><g transform="matrix(1,0,0,1,0,0)"><text x="45" y="578.34" style="fill: rgb(102,102,102); font-family: CMU Serif; font-size: 11px; font-weight: bold; " text-rendering="auto" clip-path="url(#clip-0)">2 000</text></g><g transform="matrix(1,0,0,1,0,0)"><text x="45" y="556.03" style="fill: rgb(102,102,102); font-family: CMU Serif; font-size: 11px; font-weight: bold; " text-rendering="auto" clip-path="url(#clip-0)">3 000</text></g><g transform="matrix(1,0,0,1,0,0)"><text x="45" y="533.73" style="fill: rgb(102,102,102); font-family: CMU Serif; font-size: 11px; font-weight: bold; " text-rendering="auto" clip-path="url(#clip-0)">4 000</text></g><g transform="matrix(1,0,0,1,0,0)"><text x="45" y="511.42" style="fill: rgb(102,102,102); font-family: CMU Serif; font-size: 11px; font-weight: bold; " text-rendering="auto" clip-path="url(#clip-0)">5 000</text></g><g transform="matrix(1,0,0,1,0,0)"><text x="45" y="489.11" style="fill: rgb(102,102,102); font-family: CMU Serif; font-size: 11px; font-weight: bold; " text-rendering="auto" clip-path="url(#clip-0)">6 000</text></g><g transform="matrix(1,0,0,1,0,0)"><text x="45" y="466.81" style="fill: rgb(102,102,102); font-family: CMU Serif; font-size: 11px; font-weight: bold; " text-rendering="auto" clip-path="url(#clip-0)">7 000</text></g><g transform="matrix(1,0,0,1,0,0)"><text x="45" y="444.5" style="fill: rgb(102,102,102); font-family: CMU Serif; font-size: 11px; font-weight: bold; " text-rendering="auto" clip-path="url(#clip-0)">8 000</text></g><g transform="matrix(1,0,0,1,0,0)"><text x="45" y="422.19" style="fill: rgb(102,102,102); font-family: CMU Serif; font-size: 11px; font-weight: bold; " text-rendering="auto" clip-path="url(#clip-0)">9 000</text></g><g transform="matrix(1,0,0,1,0,0)"><text x="39" y="399.89" style="fill: rgb(102,102,102); font-family: CMU Serif; font-size: 11px; font-weight: bold; " text-rendering="auto" clip-path="url(#clip-0)">10 000</text></g><g transform="matrix(1,0,0,1,0,0)"><text x="39" y="377.58" style="fill: rgb(102,102,102); font-family: CMU Serif; font-size: 11px; font-weight: bold; " text-rendering="auto" clip-path="url(#clip-0)">11 000</text></g><g transform="matrix(1,0,0,1,0,0)"><text x="39" y="355.27" style="fill: rgb(102,102,102); font-family: CMU Serif; font-size: 11px; font-weight: bold; " text-rendering="auto" clip-path="url(#clip-0)">12 000</text></g><g transform="matrix(1,0,0,1,0,0)"><text x="39" y="332.97" style="fill: rgb(102,102,102); font-family: CMU Serif; font-size: 11px; font-weight: bold; " text-rendering="auto" clip-path="url(#clip-0)">13 000</text></g><g transform="matrix(1,0,0,1,0,0)"><text x="39" y="310.66" style="fill: rgb(102,102,102); font-family: CMU Serif; font-size: 11px; font-weight: bold; " text-rendering="auto" clip-path="url(#clip-0)">14 000</text></g><g transform="matrix(1,0,0,1,0,0)"><text x="39" y="288.35" style="fill: rgb(102,102,102); font-family: CMU Serif; font-size: 11px; font-weight: bold; " text-rendering="auto" clip-path="url(#clip-0)">15 000</text></g><g transform="matrix(1,0,0,1,0,0)"><text x="39" y="266.05" style="fill: rgb(102,102,102); font-family: CMU Serif; font-size: 11px; font-weight: bold; " text-rendering="auto" clip-path="url(#clip-0)">16 000</text></g><g transform="matrix(1,0,0,1,0,0)"><text x="39" y="243.74" style="fill: rgb(102,102,102); font-family: CMU Serif; font-size: 11px; font-weight: bold; " text-rendering="auto" clip-path="url(#clip-0)">17 000</text></g><g transform="matrix(1,0,0,1,0,0)"><text x="39" y="221.43" style="fill: rgb(102,102,102); font-family: CMU Serif; font-size: 11px; font-weight: bold; " text-rendering="auto" clip-path="url(#clip-0)">18 000</text></g><g transform="matrix(1,0,0,1,0,0)"><text x="39" y="199.13" style="fill: rgb(102,102,102); font-family: CMU Serif; font-size: 11px; font-weight: bold; " text-rendering="auto" clip-path="url(#clip-0)">19 000</text></g><g transform="matrix(1,0,0,1,0,0)"><text x="39" y="176.82" style="fill: rgb(102,102,102); font-family: CMU Serif; font-size: 11px; font-weight: bold; " text-rendering="auto" clip-path="url(#clip-0)">20 000</text></g><g transform="matrix(1,0,0,1,0,0)"><text x="39" y="154.51" style="fill: rgb(102,102,102); font-family: CMU Serif; font-size: 11px; font-weight: bold; " text-rendering="auto" clip-path="url(#clip-0)">21 000</text></g><g transform="matrix(1,0,0,1,0,0)"><text x="39" y="132.21" style="fill: rgb(102,102,102); font-family: CMU Serif; font-size: 11px; font-weight: bold; " text-rendering="auto" clip-path="url(#clip-0)">22 000</text></g><g transform="matrix(1,0,0,1,0,0)"><text x="39" y="109.9" style="fill: rgb(102,102,102); font-family: CMU Serif; font-size: 11px; font-weight: bold; " text-rendering="auto" clip-path="url(#clip-0)">23 000</text></g><g transform="matrix(1,0,0,1,0,0)"><text x="39" y="87.59" style="fill: rgb(102,102,102); font-family: CMU Serif; font-size: 11px; font-weight: bold; " text-rendering="auto" clip-path="url(#clip-0)">24 000</text></g><g transform="matrix(0,-1,1,0,-319.026855,366.973145)"><text x="-40.03" y="347.03" style="fill: rgb(77,117,158); font-family: CMU Serif; font-size: 15px; font-weight: bold; " text-rendering="auto" clip-path="url(#clip-17)">Nombre de mots</text></g><line x1="112.37" y1="66" x2="112.37" y2="620" style="stroke-width: 0.5;stroke: rgb(192,192,192);stroke-opacity: 1;stroke-dasharray: 2.0, 2.0;" transform="matrix(1,0,0,1,0,0)" clip-path="url(#clip-16)"/><line x1="179.1" y1="66" x2="179.1" y2="620" style="stroke-width: 0.5;stroke: rgb(192,192,192);stroke-opacity: 1;stroke-dasharray: 2.0, 2.0;" transform="matrix(1,0,0,1,0,0)" clip-path="url(#clip-16)"/><line x1="245.83" y1="66" x2="245.83" y2="620" style="stroke-width: 0.5;stroke: rgb(192,192,192);stroke-opacity: 1;stroke-dasharray: 2.0, 2.0;" transform="matrix(1,0,0,1,0,0)" clip-path="url(#clip-16)"/><line x1="312.57" y1="66" x2="312.57" y2="620" style="stroke-width: 0.5;stroke: rgb(192,192,192);stroke-opacity: 1;stroke-dasharray: 2.0, 2.0;" transform="matrix(1,0,0,1,0,0)" clip-path="url(#clip-16)"/><line x1="379.3" y1="66" x2="379.3" y2="620" style="stroke-width: 0.5;stroke: rgb(192,192,192);stroke-opacity: 1;stroke-dasharray: 2.0, 2.0;" transform="matrix(1,0,0,1,0,0)" clip-path="url(#clip-16)"/><line x1="446.03" y1="66" x2="446.03" y2="620" style="stroke-width: 0.5;stroke: rgb(192,192,192);stroke-opacity: 1;stroke-dasharray: 2.0, 2.0;" transform="matrix(1,0,0,1,0,0)" clip-path="url(#clip-16)"/><line x1="512.77" y1="66" x2="512.77" y2="620" style="stroke-width: 0.5;stroke: rgb(192,192,192);stroke-opacity: 1;stroke-dasharray: 2.0, 2.0;" transform="matrix(1,0,0,1,0,0)" clip-path="url(#clip-16)"/><line x1="579.5" y1="66" x2="579.5" y2="620" style="stroke-width: 0.5;stroke: rgb(192,192,192);stroke-opacity: 1;stroke-dasharray: 2.0, 2.0;" transform="matrix(1,0,0,1,0,0)" clip-path="url(#clip-16)"/><line x1="646.23" y1="66" x2="646.23" y2="620" style="stroke-width: 0.5;stroke: rgb(192,192,192);stroke-opacity: 1;stroke-dasharray: 2.0, 2.0;" transform="matrix(1,0,0,1,0,0)" clip-path="url(#clip-16)"/><line x1="712.97" y1="66" x2="712.97" y2="620" style="stroke-width: 0.5;stroke: rgb(192,192,192);stroke-opacity: 1;stroke-dasharray: 2.0, 2.0;" transform="matrix(1,0,0,1,0,0)" clip-path="url(#clip-16)"/><line x1="779.7" y1="66" x2="779.7" y2="620" style="stroke-width: 0.5;stroke: rgb(192,192,192);stroke-opacity: 1;stroke-dasharray: 2.0, 2.0;" transform="matrix(1,0,0,1,0,0)" clip-path="url(#clip-16)"/><line x1="846.43" y1="66" x2="846.43" y2="620" style="stroke-width: 0.5;stroke: rgb(192,192,192);stroke-opacity: 1;stroke-dasharray: 2.0, 2.0;" transform="matrix(1,0,0,1,0,0)" clip-path="url(#clip-16)"/><line x1="913.17" y1="66" x2="913.17" y2="620" style="stroke-width: 0.5;stroke: rgb(192,192,192);stroke-opacity: 1;stroke-dasharray: 2.0, 2.0;" transform="matrix(1,0,0,1,0,0)" clip-path="url(#clip-16)"/><line x1="979.9" y1="66" x2="979.9" y2="620" style="stroke-width: 0.5;stroke: rgb(192,192,192);stroke-opacity: 1;stroke-dasharray: 2.0, 2.0;" transform="matrix(1,0,0,1,0,0)" clip-path="url(#clip-16)"/><line x1="1046.63" y1="66" x2="1046.63" y2="620" style="stroke-width: 0.5;stroke: rgb(192,192,192);stroke-opacity: 1;stroke-dasharray: 2.0, 2.0;" transform="matrix(1,0,0,1,0,0)" clip-path="url(#clip-16)"/><line x1="79" y1="597.69" x2="1080" y2="597.69" style="stroke-width: 0.5;stroke: rgb(192,192,192);stroke-opacity: 1;stroke-dasharray: 2.0, 2.0;" transform="matrix(1,0,0,1,0,0)" clip-path="url(#clip-16)"/><line x1="79" y1="575.39" x2="1080" y2="575.39" style="stroke-width: 0.5;stroke: rgb(192,192,192);stroke-opacity: 1;stroke-dasharray: 2.0, 2.0;" transform="matrix(1,0,0,1,0,0)" clip-path="url(#clip-16)"/><line x1="79" y1="553.08" x2="1080" y2="553.08" style="stroke-width: 0.5;stroke: rgb(192,192,192);stroke-opacity: 1;stroke-dasharray: 2.0, 2.0;" transform="matrix(1,0,0,1,0,0)" clip-path="url(#clip-16)"/><line x1="79" y1="530.77" x2="1080" y2="530.77" style="stroke-width: 0.5;stroke: rgb(192,192,192);stroke-opacity: 1;stroke-dasharray: 2.0, 2.0;" transform="matrix(1,0,0,1,0,0)" clip-path="url(#clip-16)"/><line x1="79" y1="508.47" x2="1080" y2="508.47" style="stroke-width: 0.5;stroke: rgb(192,192,192);stroke-opacity: 1;stroke-dasharray: 2.0, 2.0;" transform="matrix(1,0,0,1,0,0)" clip-path="url(#clip-16)"/><line x1="79" y1="486.16" x2="1080" y2="486.16" style="stroke-width: 0.5;stroke: rgb(192,192,192);stroke-opacity: 1;stroke-dasharray: 2.0, 2.0;" transform="matrix(1,0,0,1,0,0)" clip-path="url(#clip-16)"/><line x1="79" y1="463.85" x2="1080" y2="463.85" style="stroke-width: 0.5;stroke: rgb(192,192,192);stroke-opacity: 1;stroke-dasharray: 2.0, 2.0;" transform="matrix(1,0,0,1,0,0)" clip-path="url(#clip-16)"/><line x1="79" y1="441.55" x2="1080" y2="441.55" style="stroke-width: 0.5;stroke: rgb(192,192,192);stroke-opacity: 1;stroke-dasharray: 2.0, 2.0;" transform="matrix(1,0,0,1,0,0)" clip-path="url(#clip-16)"/><line x1="79" y1="419.24" x2="1080" y2="419.24" style="stroke-width: 0.5;stroke: rgb(192,192,192);stroke-opacity: 1;stroke-dasharray: 2.0, 2.0;" transform="matrix(1,0,0,1,0,0)" clip-path="url(#clip-16)"/><line x1="79" y1="396.93" x2="1080" y2="396.93" style="stroke-width: 0.5;stroke: rgb(192,192,192);stroke-opacity: 1;stroke-dasharray: 2.0, 2.0;" transform="matrix(1,0,0,1,0,0)" clip-path="url(#clip-16)"/><line x1="79" y1="374.63" x2="1080" y2="374.63" style="stroke-width: 0.5;stroke: rgb(192,192,192);stroke-opacity: 1;stroke-dasharray: 2.0, 2.0;" transform="matrix(1,0,0,1,0,0)" clip-path="url(#clip-16)"/><line x1="79" y1="352.32" x2="1080" y2="352.32" style="stroke-width: 0.5;stroke: rgb(192,192,192);stroke-opacity: 1;stroke-dasharray: 2.0, 2.0;" transform="matrix(1,0,0,1,0,0)" clip-path="url(#clip-16)"/><line x1="79" y1="330.01" x2="1080" y2="330.01" style="stroke-width: 0.5;stroke: rgb(192,192,192);stroke-opacity: 1;stroke-dasharray: 2.0, 2.0;" transform="matrix(1,0,0,1,0,0)" clip-path="url(#clip-16)"/><line x1="79" y1="307.71" x2="1080" y2="307.71" style="stroke-width: 0.5;stroke: rgb(192,192,192);stroke-opacity: 1;stroke-dasharray: 2.0, 2.0;" transform="matrix(1,0,0,1,0,0)" clip-path="url(#clip-16)"/><line x1="79" y1="285.4" x2="1080" y2="285.4" style="stroke-width: 0.5;stroke: rgb(192,192,192);stroke-opacity: 1;stroke-dasharray: 2.0, 2.0;" transform="matrix(1,0,0,1,0,0)" clip-path="url(#clip-16)"/><line x1="79" y1="263.09" x2="1080" y2="263.09" style="stroke-width: 0.5;stroke: rgb(192,192,192);stroke-opacity: 1;stroke-dasharray: 2.0, 2.0;" transform="matrix(1,0,0,1,0,0)" clip-path="url(#clip-16)"/><line x1="79" y1="240.79" x2="1080" y2="240.79" style="stroke-width: 0.5;stroke: rgb(192,192,192);stroke-opacity: 1;stroke-dasharray: 2.0, 2.0;" transform="matrix(1,0,0,1,0,0)" clip-path="url(#clip-16)"/><line x1="79" y1="218.48" x2="1080" y2="218.48" style="stroke-width: 0.5;stroke: rgb(192,192,192);stroke-opacity: 1;stroke-dasharray: 2.0, 2.0;" transform="matrix(1,0,0,1,0,0)" clip-path="url(#clip-16)"/><line x1="79" y1="196.17" x2="1080" y2="196.17" style="stroke-width: 0.5;stroke: rgb(192,192,192);stroke-opacity: 1;stroke-dasharray: 2.0, 2.0;" transform="matrix(1,0,0,1,0,0)" clip-path="url(#clip-16)"/><line x1="79" y1="173.87" x2="1080" y2="173.87" style="stroke-width: 0.5;stroke: rgb(192,192,192);stroke-opacity: 1;stroke-dasharray: 2.0, 2.0;" transform="matrix(1,0,0,1,0,0)" clip-path="url(#clip-16)"/><line x1="79" y1="151.56" x2="1080" y2="151.56" style="stroke-width: 0.5;stroke: rgb(192,192,192);stroke-opacity: 1;stroke-dasharray: 2.0, 2.0;" transform="matrix(1,0,0,1,0,0)" clip-path="url(#clip-16)"/><line x1="79" y1="129.25" x2="1080" y2="129.25" style="stroke-width: 0.5;stroke: rgb(192,192,192);stroke-opacity: 1;stroke-dasharray: 2.0, 2.0;" transform="matrix(1,0,0,1,0,0)" clip-path="url(#clip-16)"/><line x1="79" y1="106.95" x2="1080" y2="106.95" style="stroke-width: 0.5;stroke: rgb(192,192,192);stroke-opacity: 1;stroke-dasharray: 2.0, 2.0;" transform="matrix(1,0,0,1,0,0)" clip-path="url(#clip-16)"/><line x1="79" y1="84.64" x2="1080" y2="84.64" style="stroke-width: 0.5;stroke: rgb(192,192,192);stroke-opacity: 1;stroke-dasharray: 2.0, 2.0;" transform="matrix(1,0,0,1,0,0)" clip-path="url(#clip-16)"/><line x1="79" y1="620" x2="1080" y2="620" style="stroke-width: 0.5;stroke: rgb(134,145,156);stroke-opacity: 1;" transform="matrix(1,0,0,1,0,0)" clip-path="url(#clip-16)"/><rect x="89.01" y="596.49" width="46.71" height="23.51" style="fill: rgb(1,1,1);fill-opacity: 1" transform="matrix(1,0,0,1,0,0)" clip-path="url(#clip-16)"/><rect x="155.74" y="451.63" width="46.71" height="168.37" style="fill: rgb(1,1,1);fill-opacity: 1" transform="matrix(1,0,0,1,0,0)" clip-path="url(#clip-16)"/><rect x="222.48" y="543.09" width="46.71" height="76.91" style="fill: rgb(1,1,1);fill-opacity: 1" transform="matrix(1,0,0,1,0,0)" clip-path="url(#clip-16)"/><rect x="289.21" y="530.97" width="46.71" height="89.03" style="fill: rgb(1,1,1);fill-opacity: 1" transform="matrix(1,0,0,1,0,0)" clip-path="url(#clip-16)"/><rect x="355.94" y="449.76" width="46.71" height="170.24" style="fill: rgb(1,1,1);fill-opacity: 1" transform="matrix(1,0,0,1,0,0)" clip-path="url(#clip-16)"/><rect x="422.68" y="381.03" width="46.71" height="238.97" style="fill: rgb(1,1,1);fill-opacity: 1" transform="matrix(1,0,0,1,0,0)" clip-path="url(#clip-16)"/><rect x="489.41" y="423.34" width="46.71" height="196.66" style="fill: rgb(1,1,1);fill-opacity: 1" transform="matrix(1,0,0,1,0,0)" clip-path="url(#clip-16)"/><rect x="556.14" y="365.28" width="46.71" height="254.72" style="fill: rgb(1,1,1);fill-opacity: 1" transform="matrix(1,0,0,1,0,0)" clip-path="url(#clip-16)"/><rect x="622.88" y="460.57" width="46.71" height="159.43" style="fill: rgb(1,1,1);fill-opacity: 1" transform="matrix(1,0,0,1,0,0)" clip-path="url(#clip-16)"/><rect x="689.61" y="92.38" width="46.71" height="527.62" style="fill: rgb(1,1,1);fill-opacity: 1" transform="matrix(1,0,0,1,0,0)" clip-path="url(#clip-16)"/><rect x="756.34" y="356.85" width="46.71" height="263.15" style="fill: rgb(1,1,1);fill-opacity: 1" transform="matrix(1,0,0,1,0,0)" clip-path="url(#clip-16)"/><rect x="823.08" y="433.16" width="46.71" height="186.84" style="fill: rgb(1,1,1);fill-opacity: 1" transform="matrix(1,0,0,1,0,0)" clip-path="url(#clip-16)"/><rect x="889.81" y="495.22" width="46.71" height="124.78" style="fill: rgb(1,1,1);fill-opacity: 1" transform="matrix(1,0,0,1,0,0)" clip-path="url(#clip-16)"/><rect x="956.54" y="354.31" width="46.71" height="265.69" style="fill: rgb(1,1,1);fill-opacity: 1" transform="matrix(1,0,0,1,0,0)" clip-path="url(#clip-16)"/><rect x="1023.28" y="516.81" width="46.71" height="103.19" style="fill: rgb(1,1,1);fill-opacity: 1" transform="matrix(1,0,0,1,0,0)" clip-path="url(#clip-16)"/></svg>
